<svg xmlns="http://www.w3.org/2000/svg" width="300" height="100" viewBox="0 0 300 100">
  <style>
    .signature {
      fill: none;
      stroke: #F44336;
      stroke-width: 2;
      stroke-linecap: round;
      stroke-linejoin: round;
    }
    .hesitation {
      stroke-width: 3;
    }
  </style>
  <path class="signature" d="M30,70 C32,68 34,66 36,64 C38,62 40,60 42,58 C44,56 46,54 48,56 C50,58 52,60 54,62 C56,60 58,58 60,56 C62,54 64,52 66,50 C68,48 70,50 72,52 C74,54 76,56 78,58 C80,60 82,62 84,60 C86,58 88,56 90,54 C92,52 94,50 96,52 C98,54 100,56 102,58" />
  <path class="signature hesitation" d="M110,70 L112,68 L114,66 L116,64" />
  <path class="signature" d="M120,60 C125,58 130,56 135,54 C140,52 145,50 150,52 C155,54 160,56 165,58 C170,60 175,62 180,60 C185,58 190,56 195,54 C200,52 205,50 210,52 C215,54 220,56 225,58" />
  <path class="signature hesitation" d="M230,60 L232,58 L234,56 L236,54 L238,52" />
  <path class="signature" d="M240,50 C245,48 250,46 255,44 C260,42 265,40 270,42" />
</svg>